<svg width="20" height="23" fill="none" xmlns="http://www.w3.org/2000/svg"><path fill-rule="evenodd" clip-rule="evenodd" d="M18.32 19.78c0 .92-.763 1.687-1.679 1.687H3.206c-.916 0-1.68-.767-1.68-1.687V7.667c0-.767.764-1.534 1.68-1.534h13.588c.916 0 1.68.767 1.68 1.687v11.96h-.153zM9.925 1.533c1.832 0 3.206 1.38 3.511 3.067H6.412c.306-1.687 1.68-3.067 3.512-3.067zM16.64 4.6h-1.68C14.657 1.993 12.52 0 9.925 0 7.328 0 5.19 1.993 4.886 4.6h-1.68C1.374 4.6 0 5.98 0 7.82v12.113C0 21.62 1.374 23 3.206 23h13.588C18.474 23 20 21.62 20 19.78V7.667C19.847 5.98 18.473 4.6 16.641 4.6z" fill="#fff"/></svg>