<svg width="30" height="30" fill="none" xmlns="http://www.w3.org/2000/svg"><path fill-rule="evenodd" clip-rule="evenodd" d="M7.566 0A7.566 7.566 0 000 7.566v14.868A7.566 7.566 0 007.566 30h14.868A7.566 7.566 0 0030 22.434V7.566A7.566 7.566 0 0022.434 0H7.566zM2.39 7.566A5.177 5.177 0 017.566 2.39h14.868a5.177 5.177 0 015.177 5.177v14.868a5.177 5.177 0 01-5.177 5.177H7.566a5.177 5.177 0 01-5.177-5.177V7.566zM9.292 15a5.708 5.708 0 1111.416 0 5.708 5.708 0 01-11.416 0zM15 6.903a8.097 8.097 0 100 16.194 8.097 8.097 0 000-16.194zm8.496 1.194a1.593 1.593 0 100-3.186 1.593 1.593 0 000 3.186z" fill="#fff"/></svg>