<svg width="15" height="15" fill="none" xmlns="http://www.w3.org/2000/svg"><path clip-rule="evenodd" d="M3.783 0A3.783 3.783 0 000 3.783v7.434A3.783 3.783 0 003.783 15h7.434A3.783 3.783 0 0015 11.217V3.783A3.783 3.783 0 0011.217 0H3.783zM1.195 3.783a2.589 2.589 0 012.588-2.588h7.434a2.588 2.588 0 012.588 2.588v7.434a2.588 2.588 0 01-2.588 2.588H3.783a2.588 2.588 0 01-2.588-2.588V3.783zM4.646 7.5a2.854 2.854 0 115.708 0 2.854 2.854 0 01-5.708 0zM7.5 3.451a4.049 4.049 0 100 8.098 4.049 4.049 0 000-8.098zm4.248.598a.796.796 0 100-1.593.796.796 0 000 1.593z"/></svg>