<svg width="17" height="15" fill="none" xmlns="http://www.w3.org/2000/svg"><path d="M15.655 7.749a4.579 4.579 0 000-6.418A4.44 4.44 0 0012.476 0c-1.2 0-2.33.473-3.18 1.331l-.812.822-.814-.822A4.441 4.441 0 004.491 0c-1.2 0-2.33.473-3.179 1.331a4.579 4.579 0 000 6.418L8.484 15l7.17-7.251zm-13.84-5.92A3.74 3.74 0 014.491.706a3.74 3.74 0 012.677 1.121L8.484 3.16 9.8 1.83A3.74 3.74 0 0112.476.706a3.74 3.74 0 012.676 1.121 3.87 3.87 0 010 5.424l-6.668 6.742-6.669-6.742a3.869 3.869 0 010-5.424z"/></svg>