<svg width="80" height="92" fill="none" xmlns="http://www.w3.org/2000/svg"><g clip-path="url(#clip0_51_3060)" fill-rule="evenodd" clip-rule="evenodd" fill="#000"><path d="M36.135 41.44H17.07v28.458H0V0h30.944l27.415.04-.072 41.341-22.16.059h.008zm1.705-27.552H17.07v13.44h16.97l8.794.027-.035-13.44-4.959-.027z"/><path d="M79.917 69.898V0H62.85v54.818H21.308v15.08h58.61zM5.01 88.35H1.812v3.83H.064V83.3h7.419v5.063h-2.46l-.013-.014zm0-3.426H1.812v1.802h3.91v-1.8l-.712-.002zm3.805 7.256V83.3h1.75v7.256h4.798v1.624H8.815zm6.809 0l3.501-8.88h1.954l3.498 8.88h-1.865l-1.127-2.882h-2.982l-1.103 2.88-1.876.002zm4.477-6.8l-.901 2.359H21l-.9-2.36zm11.78-.456V83.3h-8.19v1.623h3.224v7.256h1.75v-7.256h3.217zm7.292 3.199h-4.339v4.06h-1.75V83.3h6.518v1.623h-4.768v1.573h4.339v1.626zm2.529 2.974c-.807-.806-1.21-1.925-1.21-3.355 0-1.431.403-2.55 1.21-3.357.8-.812 1.876-1.218 3.227-1.218 1.35 0 2.425.404 3.227 1.21.806.807 1.21 1.926 1.21 3.357 0 1.43-.404 2.549-1.21 3.356-.807.806-1.883 1.21-3.227 1.21-1.345 0-2.421-.404-3.227-1.21v.007zm5.156-5.53a2.795 2.795 0 00-3.861 0c-.487.515-.73 1.242-.73 2.183 0 .94.243 1.666.73 2.18a2.795 2.795 0 003.86 0c.482-.515.723-1.242.723-2.18 0-.939-.24-1.666-.722-2.184zm10.068 6.62l-2.932-4.07h-1.282v4.07h-1.75v-8.886h7.28l.024 4.798h-2.319l3.03 4.07-2.051.019zm-1.154-7.255h-3.07v1.56h3.792v-1.565h-.738l.016.005zm12.3 1.775l-2.46 5.48H64.32l-2.46-5.48v5.48h-1.75v-8.886h1.916l2.931 6.381 2.931-6.381h1.93v8.879h-1.751V86.7l.005.007zm2.892 5.48l3.499-8.878h1.953l3.499 8.879h-1.866l-1.114-2.89h-2.992l-1.103 2.88-1.876.01zm4.477-6.8l-.901 2.36h1.801l-.9-2.36z"/></g><defs><clipPath id="clip0_51_3060"><path fill="#fff" d="M0 0h80v92H0z"/></clipPath></defs></svg>