<svg width="89" height="102" fill="none" xmlns="http://www.w3.org/2000/svg"><g clip-path="url(#clip0_51_267)" fill-rule="evenodd" clip-rule="evenodd" fill="#fff"><path d="M40.2 45.944H18.99v31.551H0V0h34.425l30.5.044-.08 45.835-24.654.065h.009zm1.897-30.547H18.991v14.901H37.87l9.783.03-.039-14.901-5.517-.03z"/><path d="M88.908 77.495V0H69.92v60.777H23.705v16.718h65.203zM5.574 97.953H2.016v4.246H.071v-9.844h8.254v5.612H5.588l-.014-.014zm0-3.798H2.016v1.998h4.35v-1.995l-.792-.003zm4.233 8.044v-9.844h1.948v8.045h5.336v1.799H9.807zm7.574 0l3.896-9.844h2.173l3.893 9.844h-2.076l-1.254-3.194h-3.317l-1.227 3.191-2.088.003zm4.981-7.539l-1.002 2.616h2.004l-1.002-2.616zm13.107-.505v-1.8h-9.114v1.8h3.587v8.044h1.948v-8.044h3.578zm8.11 3.546h-4.826v4.501h-1.947v-9.847h7.25v1.8h-5.303v1.743h4.827v1.803zM46.394 101c-.897-.894-1.346-2.134-1.346-3.72 0-1.586.449-2.827 1.346-3.721.891-.9 2.088-1.35 3.59-1.35 1.502 0 2.699.447 3.59 1.341.898.894 1.346 2.135 1.346 3.72 0 1.587-.448 2.827-1.346 3.722-.897.894-2.094 1.341-3.59 1.341s-2.693-.447-3.59-1.341V101zm5.736-6.132a3.115 3.115 0 00-4.295 0c-.542.572-.813 1.378-.813 2.42 0 1.043.271 1.849.813 2.418a3.114 3.114 0 004.295 0c.536-.571.804-1.377.804-2.418 0-1.04-.268-1.847-.803-2.42zm11.2 7.341l-3.26-4.513h-1.426v4.513h-1.948v-9.853h8.099l.026 5.32h-2.58l3.371 4.513-2.282.02zm-1.283-8.044h-3.415v1.729h4.218v-1.735h-.82l.017.006zm13.685 1.968l-2.737 6.076h-1.438l-2.736-6.076v6.076h-1.948v-9.853h2.132l3.261 7.075 3.261-7.075h2.146v9.844h-1.947v-6.076l.006.009zm3.216 6.076l3.893-9.844h2.173l3.892 9.844H86.83l-1.24-3.203h-3.328l-1.228 3.191-2.087.012zm4.98-7.539l-1.001 2.616h2.004l-1.002-2.616z"/></g><defs><clipPath id="clip0_51_267"><path fill="#fff" d="M0 0h89v102H0z"/></clipPath></defs></svg>