<svg id="Слой_1" data-name="Слой 1" xmlns="http://www.w3.org/2000/svg" viewBox="0 0 1602.3 181.58"><path d="M1426 179.82h-41.66V80.37l-1.1-.34c-.72 1.64-1.49 3.26-2.16 4.93Q1363 130.38 1345 175.83c-1.2 3.06-2.55 4.46-6.07 4.3-7-.32-14-.29-21 0-3.37.13-4.87-1-6.12-4.15-11.86-30.19-23.92-60.29-35.93-90.41a11.85 11.85 0 00-3.11-4.81v99h-42.21V5.77h7.13c12.16 0 24.33.14 36.48-.09 3.43-.06 4.87 1.17 6.15 4.21q22.71 53.78 45.7 107.43c.7 1.65 1.49 3.26 2.55 5.56 6.58-15.49 12.9-30.31 19.19-45.15 9.47-22.36 19-44.7 28.29-67.12 1.47-3.53 3.12-5 7.22-5 14.12.32 28.25.12 42.73.12zM1088 109v70.73h-42.41V6.12h148.12v102.64h-36l51.29 70.82c-1.72.19-2.93.43-4.13.44-13.5 0-27-.09-40.5.09-3.07 0-4.75-1.08-6.42-3.51-14.63-21.27-29.44-42.41-44-63.71-2-3-4.17-4.16-7.74-4-5.81.33-11.64.11-18.21.11zm67.74-64.65h-67.34v26.39h67.37zM926.35 2.09c24.3.46 46.48 6.4 64.48 23.76 14 13.52 21.16 30.42 23.77 49.4 2.29 16.67 1.9 33.33-2.93 49.5-9.8 32.8-32.44 51.37-65.73 57.17a111.62 111.62 0 01-49.5-2.28c-33.12-9.25-55.25-36.53-58.47-71.37-1.4-15.22-1.18-30.3 2.85-45.1 9.19-33.73 31.84-52.75 65.69-59 6.49-1.26 13.22-1.43 19.84-2.08zm46.19 92.65c-.6-6.19-.87-11-1.57-15.77-3.35-22.69-19.48-37.78-41.36-38.85-23.72-1.17-41.26 11.69-47 34.63a79 79 0 00-.5 34.66c4.32 21.59 20.59 35.59 42.13 36.46 22.34.9 39.7-11.44 45.35-32.77 1.69-6.37 2.13-13.1 2.95-18.36zm-796.93 14.31H69.22v70.57H26.61V6h149zM69.23 70.66h68.37v-26.4H69.23zM519.83 180c-14.68 0-28.83.09-43-.16-1.28 0-3.14-2-3.69-3.52q-8.39-22.42-16.33-45c-1.1-3.15-2.6-4.32-6.07-4.27q-21.22.34-42.47 0c-3.55 0-5.23 1-6.42 4.44-5.18 14.92-10.76 29.7-16 44.59-1 2.95-2.45 4.06-5.69 4-13.6-.2-27.21-.09-41.48-.09 5.22-13.61 10.21-26.61 15.19-39.61q24.87-65 49.66-130c1.32-3.5 2.86-4.84 6.71-4.76 13 .27 26 .16 39 0 2.8 0 4.44.57 5.57 3.53q31.92 84 64.1 167.85c.29.72.47 1.52.92 3zM429.4 52.62c-5.27 14.72-10.1 28.2-15 42h30.07c-4.99-13.8-9.79-27.2-15.07-42zM1447.7 180c6.26-16.34 12.26-32 18.25-47.64q23.37-61 46.63-122.07c1.36-3.59 3-4.71 6.79-4.64 13 .24 26 .14 39 .05 2.55 0 4.22.35 5.29 3.16q32.13 84.36 64.46 168.65c.22.6.4 1.22.82 2.49-11 0-21.6.05-32.17 0-4.45 0-9.94 1.18-13.06-.94-2.92-2-3.35-7.65-4.83-11.71-4.33-11.87-8.73-23.72-12.88-35.65-1.13-3.26-2.54-4.72-6.31-4.65-14.32.26-28.64.21-43 0-3.26 0-4.64 1.13-5.68 4.07-5.26 14.89-10.79 29.68-16 44.58-1.08 3.09-2.35 4.46-5.92 4.4-13.5-.22-26.98-.1-41.39-.1zm105.73-85.41c-5-13.87-9.79-27.29-15.06-42-5.27 14.77-10.07 28.22-15 42zM732.2 42.41v26.48h80.18v36.43h-80.06v74.3h-42.58V6.21h131v36.2zM606 179.85h-42.65V43.91c-2.2-.11-4-.28-5.7-.28-16.82 0-33.65-.11-50.47.06-3.63 0-5-.87-4.88-4.72.25-10.79.09-21.6.09-32.8h163.47v37.46H606zm-404.48-.1V6.21h42.36v136h89.54v37.52z" transform="translate(-26.61 -2.09)" fill="#fff"/></svg>