<svg width="16" height="16" viewBox="0 0 16 16" fill="none" xmlns="http://www.w3.org/2000/svg">
    <path d="M4 15C4 15.5625 4.4375 16 5 16H11C11.5312 16 12 15.5625 12 15V14.5H4V15ZM12 1C12 0.46875 11.5312 0 11 0H5C4.4375 0 4 0.46875 4 1V1.5H12V1ZM12 2.5H4C2.875 2.5 2 3.40625 2 4.5V11.5C2 12.625 2.875 13.5 4 13.5H12C13.0938 13.5 14 12.625 14 11.5V4.5C14 3.40625 13.0938 2.5 12 2.5ZM10.9375 8.21875L8.28125 10.875C8.21875 10.9688 8.09375 11 8 11C7.875 11 7.75 10.9688 7.6875 10.875L5.03125 8.21875C4.25 7.4375 4.3125 6.15625 5.15625 5.4375C5.90625 4.8125 7.03125 4.90625 7.71875 5.59375L8 5.875L8.25 5.59375C8.9375 4.90625 10.0625 4.8125 10.8125 5.4375C11.6562 6.15625 11.7188 7.4375 10.9375 8.21875Z"
          fill="#000"/>
</svg>
