<svg width="20" height="23" viewBox="0 0 20 23" fill="none" xmlns="http://www.w3.org/2000/svg">
<path fill-rule="evenodd" clip-rule="evenodd" d="M18.3206 19.78C18.3206 20.7 17.5573 21.4667 16.6412 21.4667H3.20611C2.29008 21.4667 1.52672 20.7 1.52672 19.78V7.66667C1.52672 6.9 2.29008 6.13333 3.20611 6.13333H16.7939C17.7099 6.13333 18.4733 6.9 18.4733 7.82V19.78H18.3206ZM9.92366 1.53333C11.7557 1.53333 13.1298 2.91333 13.4351 4.6H6.41221C6.71756 2.91333 8.0916 1.53333 9.92366 1.53333ZM16.6412 4.6H14.9618C14.6565 1.99333 12.5191 0 9.92366 0C7.32824 0 5.19084 1.99333 4.8855 4.6H3.20611C1.37405 4.6 0 5.98 0 7.82V19.9333C0 21.62 1.37405 23 3.20611 23H16.7939C18.4733 23 20 21.62 20 19.78V7.66667C19.8473 5.98 18.4733 4.6 16.6412 4.6Z" fill="white"/>
</svg>
