<svg width="15" height="15" viewBox="0 0 15 15" fill="none" xmlns="http://www.w3.org/2000/svg">
    <path fill-rule="evenodd" clip-rule="evenodd"
          d="M3.78319 0C1.69379 0 0 1.69379 0 3.78319V11.2168C0 13.3062 1.69379 15 3.78319 15H11.2168C13.3062 15 15 13.3062 15 11.2168V3.78319C15 1.69379 13.3062 0 11.2168 0H3.78319ZM1.19469 3.78319C1.19469 2.35361 2.35361 1.19469 3.78319 1.19469H11.2168C12.6464 1.19469 13.8053 2.35361 13.8053 3.78319V11.2168C13.8053 12.6464 12.6464 13.8053 11.2168 13.8053H3.78319C2.35361 13.8053 1.19469 12.6464 1.19469 11.2168V3.78319ZM4.64602 7.5C4.64602 5.92381 5.92381 4.64602 7.5 4.64602C9.07619 4.64602 10.354 5.92381 10.354 7.5C10.354 9.07619 9.07619 10.354 7.5 10.354C5.92381 10.354 4.64602 9.07619 4.64602 7.5ZM7.5 3.45133C5.26397 3.45133 3.45133 5.26397 3.45133 7.5C3.45133 9.73603 5.26397 11.5487 7.5 11.5487C9.73603 11.5487 11.5487 9.73603 11.5487 7.5C11.5487 5.26397 9.73603 3.45133 7.5 3.45133ZM11.7478 4.04867C12.1877 4.04867 12.5442 3.69209 12.5442 3.25221C12.5442 2.81233 12.1877 2.45575 11.7478 2.45575C11.3079 2.45575 10.9513 2.81233 10.9513 3.25221C10.9513 3.69209 11.3079 4.04867 11.7478 4.04867Z"
          />
</svg>
