<svg width="30" height="30" viewBox="0 0 30 30" fill="none" xmlns="http://www.w3.org/2000/svg">
<path fill-rule="evenodd" clip-rule="evenodd" d="M7.56637 0C3.38758 0 0 3.38758 0 7.56637V22.4336C0 26.6124 3.38758 30 7.56637 30H22.4336C26.6124 30 30 26.6124 30 22.4336V7.56637C30 3.38758 26.6124 0 22.4336 0H7.56637ZM2.38938 7.56637C2.38938 4.70721 4.70721 2.38938 7.56637 2.38938H22.4336C25.2928 2.38938 27.6106 4.70721 27.6106 7.56637V22.4336C27.6106 25.2928 25.2928 27.6106 22.4336 27.6106H7.56637C4.70721 27.6106 2.38938 25.2928 2.38938 22.4336V7.56637ZM9.29204 15C9.29204 11.8476 11.8476 9.29204 15 9.29204C18.1524 9.29204 20.708 11.8476 20.708 15C20.708 18.1524 18.1524 20.708 15 20.708C11.8476 20.708 9.29204 18.1524 9.29204 15ZM15 6.90265C10.5279 6.90265 6.90265 10.5279 6.90265 15C6.90265 19.4721 10.5279 23.0973 15 23.0973C19.4721 23.0973 23.0973 19.4721 23.0973 15C23.0973 10.5279 19.4721 6.90265 15 6.90265ZM23.4956 8.09735C24.3753 8.09735 25.0885 7.38418 25.0885 6.50442C25.0885 5.62467 24.3753 4.9115 23.4956 4.9115C22.6158 4.9115 21.9027 5.62467 21.9027 6.50442C21.9027 7.38418 22.6158 8.09735 23.4956 8.09735Z" fill="white"/>
</svg>
