<svg width="17" height="15" viewBox="0 0 17 15" fill="none" xmlns="http://www.w3.org/2000/svg">
    <path d="M15.6548 7.74893C17.4047 5.97956 17.4047 3.10063 15.6548 1.33127C14.8061 0.47275 13.6771 0 12.4763 0C12.476 0 12.476 0 12.476 0C11.2752 0 10.1458 0.47275 9.29686 1.33127L8.4836 2.15336L7.67034 1.33127C6.82137 0.47275 5.69236 0 4.49121 0C3.29042 0 2.16141 0.47275 1.31244 1.33127C-0.437479 3.10063 -0.437479 5.97956 1.31244 7.74893L8.4836 15L15.6548 7.74893ZM1.81524 1.82841C2.5302 1.10532 3.48101 0.70718 4.49121 0.70718C5.50177 0.70718 6.45258 1.10532 7.16754 1.82841L8.4836 3.15933L9.79966 1.82841C10.5146 1.10532 11.4654 0.70718 12.476 0.70718C13.4865 0.70718 14.437 1.10532 15.152 1.82841C16.631 3.32375 16.631 5.75645 15.152 7.25178L8.4836 13.9944L1.81524 7.25178C0.336176 5.75645 0.336176 3.32339 1.81524 1.82841Z"
          />
</svg>
