<svg width="80" height="92" viewBox="0 0 80 92" fill="none" xmlns="http://www.w3.org/2000/svg">
<g clip-path="url(#clip0_51_3060)">
<path fill-rule="evenodd" clip-rule="evenodd" d="M36.1347 41.4397H17.0707V69.8978H0V0H30.9437L58.3592 0.0399843L58.2872 41.3811L36.1267 41.4397H36.1347ZM37.8402 13.8879H17.0707V27.3279H34.0402L42.834 27.3546L42.7994 13.9145L37.8402 13.8879Z" fill="black"/>
<path fill-rule="evenodd" clip-rule="evenodd" d="M79.9173 69.8978V0H62.8492V54.8184H21.3076V69.8978H79.9173Z" fill="black"/>
<path fill-rule="evenodd" clip-rule="evenodd" d="M5.00984 88.3493H1.81207V92.1798H0.0639648V83.3006H7.48277V85.8329V88.3626H5.02316L5.00984 88.3493ZM5.00984 84.9239H1.81207V86.7259H5.72134V84.9266L5.00984 84.9239ZM8.81517 92.1798V83.3006H10.5659V90.5564H15.3626V92.1798H8.81517ZM15.6237 92.1798L19.1253 83.3006H21.0786L24.5775 92.1798H22.7121L21.5849 89.2982H18.603L17.4998 92.1771L15.6237 92.1798ZM20.1006 85.3798L19.1999 87.7388H21.0013L20.1006 85.3798ZM31.8817 84.9239V83.3006H23.6901V84.9239H26.9145V92.1798H28.6653V84.9239H31.8817ZM39.1726 88.1227H34.8343V92.1824H33.0835V83.3006H39.6016V84.9239H34.8343V86.4967H39.1726V88.12V88.1227ZM41.7015 91.0975C40.8949 90.2907 40.4917 89.172 40.4917 87.7415C40.4917 86.311 40.8949 85.1923 41.7015 84.3855C42.5027 83.5734 43.5784 83.1673 44.9286 83.1673C46.2787 83.1673 47.3544 83.5707 48.1556 84.3775C48.9622 85.1843 49.3655 86.303 49.3655 87.7335C49.3655 89.1641 48.9622 90.2827 48.1556 91.0895C47.3491 91.8963 46.2734 92.2997 44.9286 92.2997C43.5837 92.2997 42.508 91.8963 41.7015 91.0895V91.0975ZM46.8579 85.5664C46.3378 85.0695 45.6464 84.7923 44.9272 84.7923C44.2081 84.7923 43.5166 85.0695 42.9966 85.5664C42.5098 86.0817 42.2664 86.8094 42.2664 87.7495C42.2664 88.6896 42.5098 89.4164 42.9966 89.93C43.5166 90.4268 44.2081 90.704 44.9272 90.704C45.6464 90.704 46.3378 90.4268 46.8579 89.93C47.3393 89.4146 47.58 88.6878 47.58 87.7495C47.58 86.8112 47.3393 86.0835 46.8579 85.5664ZM56.9255 92.1877L53.9942 88.1174H52.7124V92.1877H50.9617V83.3006H55.7796H58.2419L58.2659 88.0987H55.9475L58.9774 92.1691L56.9255 92.1877ZM55.7716 84.9319H52.7018V86.4913H56.4938V84.9266H55.7556L55.7716 84.9319ZM68.0724 86.7072L65.6127 92.1877H64.3203L61.8607 86.7072V92.1877H60.1099V83.3006H62.0259L64.9572 89.6821L67.8885 83.3006H69.8178V92.1798H68.067V86.6992L68.0724 86.7072ZM70.9637 92.1877L74.4626 83.3086H76.4159L79.9147 92.1877H78.0494L76.9355 89.2982H73.9429L72.8397 92.1771L70.9637 92.1877ZM75.4405 85.3878L74.5398 87.7468H76.3412L75.4405 85.3878Z" fill="black"/>
</g>
<defs>
<clipPath id="clip0_51_3060">
<rect width="80" height="92" fill="white"/>
</clipPath>
</defs>
</svg>
