<svg width="89" height="102" viewBox="0 0 89 102" fill="none" xmlns="http://www.w3.org/2000/svg">
<g clip-path="url(#clip0_51_267)">
<path fill-rule="evenodd" clip-rule="evenodd" d="M40.1999 45.944H18.9912V77.4954H0V0H34.4248L64.9246 0.0443304L64.8445 45.879L40.191 45.944H40.1999ZM42.0972 15.3974H18.9912V30.2983H37.8697L47.6528 30.3279L47.6143 15.427L42.0972 15.3974Z" fill="white"/>
<path fill-rule="evenodd" clip-rule="evenodd" d="M88.9083 77.4954V0H69.9201V60.777H23.7051V77.4954H88.9083Z" fill="white"/>
<path fill-rule="evenodd" clip-rule="evenodd" d="M5.57357 97.9525H2.01606V102.199H0.0712891V92.355H8.32471V95.1626V97.9673H5.58839L5.57357 97.9525ZM5.57357 94.1549H2.01606V96.1527H6.36512V94.1578L5.57357 94.1549ZM9.80701 102.199V92.355H11.7547V100.4H17.091V102.199H9.80701ZM17.3815 102.199L21.277 92.355H23.4501L27.3426 102.199H25.2674L24.0133 99.0046H20.696L19.4686 102.196L17.3815 102.199ZM22.3621 94.6602L21.36 97.2757H23.3641L22.3621 94.6602ZM35.4685 94.1549V92.355H26.3554V94.1549H29.9425V102.199H31.8903V94.1549H35.4685ZM43.5796 97.7013H38.7533V102.202H36.8055V92.355H44.0569V94.1549H38.7533V95.8985H43.5796V97.6983V97.7013ZM46.393 100.999C45.4958 100.105 45.0471 98.8647 45.0471 97.2787C45.0471 95.6926 45.4958 94.4524 46.393 93.5579C47.2844 92.6575 48.4811 92.2073 49.9832 92.2073C51.4852 92.2073 52.6819 92.6545 53.5733 93.549C54.4706 94.4435 54.9192 95.6838 54.9192 97.2698C54.9192 98.8558 54.4706 100.096 53.5733 100.991C52.676 101.885 51.4793 102.332 49.9832 102.332C48.487 102.332 47.2903 101.885 46.393 100.991V100.999ZM52.1295 94.8671C51.5509 94.3163 50.7817 94.0089 49.9817 94.0089C49.1816 94.0089 48.4124 94.3163 47.8338 94.8671C47.2923 95.4385 47.0215 96.2453 47.0215 97.2875C47.0215 98.3298 47.2923 99.1356 47.8338 99.705C48.4124 100.256 49.1816 100.563 49.9817 100.563C50.7817 100.563 51.5509 100.256 52.1295 99.705C52.6651 99.1337 52.9329 98.3278 52.9329 97.2875C52.9329 96.2473 52.6651 95.4404 52.1295 94.8671ZM63.3297 102.208L60.0687 97.6954H58.6427V102.208H56.695V92.355H62.055H64.7943L64.8209 97.6747H62.2417L65.6125 102.188L63.3297 102.208ZM62.0461 94.1637H58.6309V95.8926H62.8495V94.1578H62.0283L62.0461 94.1637ZM75.7306 96.132L72.9943 102.208H71.5565L68.8202 96.132V102.208H66.8724V92.355H69.004L72.265 99.4302L75.5261 92.355H77.6724V102.199H75.7247V96.1231L75.7306 96.132ZM78.9472 102.208L82.8397 92.3639H85.0128L88.9053 102.208H86.8301L85.5909 99.0046H82.2616L81.0343 102.196L78.9472 102.208ZM83.9277 94.6691L82.9257 97.2846H84.9298L83.9277 94.6691Z" fill="white"/>
</g>
<defs>
<clipPath id="clip0_51_267">
<rect width="89" height="102" fill="white"/>
</clipPath>
</defs>
</svg>
