<svg id="Слой_1" data-name="Слой 1" xmlns="http://www.w3.org/2000/svg" viewBox="0 0 1602.3 181.58"><defs><style>.cls-1{fill:#fff;}</style></defs><path class="cls-1" d="M1426,179.82h-41.66V80.37l-1.1-.34c-.72,1.64-1.49,3.26-2.16,4.93Q1363,130.38,1345,175.83c-1.2,3.06-2.55,4.46-6.07,4.3-7-.32-14-.29-21,0-3.37.13-4.87-1-6.12-4.15-11.86-30.19-23.92-60.29-35.93-90.41a11.85,11.85,0,0,0-3.11-4.81v99h-42.21V5.77h7.13c12.16,0,24.33.14,36.48-.09,3.43-.06,4.87,1.17,6.15,4.21q22.71,53.78,45.7,107.43c.7,1.65,1.49,3.26,2.55,5.56,6.58-15.49,12.9-30.31,19.19-45.15,9.47-22.36,19-44.7,28.29-67.12,1.47-3.53,3.12-5,7.22-5,14.12.32,28.25.12,42.73.12Z" transform="translate(-26.61 -2.09)"/><path class="cls-1" d="M1088,109v70.73h-42.41V6.12h148.12V108.76h-36L1209,179.58c-1.72.19-2.93.43-4.13.44-13.5,0-27-.09-40.5.09-3.07,0-4.75-1.08-6.42-3.51-14.63-21.27-29.44-42.41-44-63.71-2-3-4.17-4.16-7.74-4C1100.4,109.22,1094.57,109,1088,109Zm67.74-64.65H1088.4V70.74h67.37Z" transform="translate(-26.61 -2.09)"/><path class="cls-1" d="M926.35,2.09c24.3.46,46.48,6.4,64.48,23.76,14,13.52,21.16,30.42,23.77,49.4,2.29,16.67,1.9,33.33-2.93,49.5-9.8,32.8-32.44,51.37-65.73,57.17a111.62,111.62,0,0,1-49.5-2.28c-33.12-9.25-55.25-36.53-58.47-71.37-1.4-15.22-1.18-30.3,2.85-45.1,9.19-33.73,31.84-52.75,65.69-59C913,2.91,919.73,2.74,926.35,2.09Zm46.19,92.65c-.6-6.19-.87-11-1.57-15.77-3.35-22.69-19.48-37.78-41.36-38.85-23.72-1.17-41.26,11.69-47,34.63a79,79,0,0,0-.5,34.66C886.43,131,902.7,145,924.24,145.87c22.34.9,39.7-11.44,45.35-32.77C971.28,106.73,971.72,100,972.54,94.74Z" transform="translate(-26.61 -2.09)"/><path class="cls-1" d="M175.61,109.05H69.22v70.57H26.61V6h149ZM69.23,70.66H137.6V44.26H69.23Z" transform="translate(-26.61 -2.09)"/><path class="cls-1" d="M519.83,180c-14.68,0-28.83.09-43-.16-1.28,0-3.14-2-3.69-3.52q-8.39-22.42-16.33-45c-1.1-3.15-2.6-4.32-6.07-4.27q-21.22.34-42.47,0c-3.55,0-5.23,1-6.42,4.44-5.18,14.92-10.76,29.7-16,44.59-1,2.95-2.45,4.06-5.69,4-13.6-.2-27.21-.09-41.48-.09,5.22-13.61,10.21-26.61,15.19-39.61q24.87-65,49.66-130c1.32-3.5,2.86-4.84,6.71-4.76,13,.27,26,.16,39,0,2.8,0,4.44.57,5.57,3.53Q486.73,93.15,518.91,177C519.2,177.72,519.38,178.52,519.83,180ZM429.4,52.62c-5.27,14.72-10.1,28.2-15,42h30.07C439.48,80.82,434.68,67.42,429.4,52.62Z" transform="translate(-26.61 -2.09)"/><path class="cls-1" d="M1447.7,180c6.26-16.34,12.26-32,18.25-47.64q23.37-61,46.63-122.07c1.36-3.59,3-4.71,6.79-4.64,13,.24,26,.14,39,.05,2.55,0,4.22.35,5.29,3.16q32.13,84.36,64.46,168.65c.22.6.4,1.22.82,2.49-11,0-21.6.05-32.17,0-4.45,0-9.94,1.18-13.06-.94-2.92-2-3.35-7.65-4.83-11.71-4.33-11.87-8.73-23.72-12.88-35.65-1.13-3.26-2.54-4.72-6.31-4.65-14.32.26-28.64.21-43,0-3.26,0-4.64,1.13-5.68,4.07-5.26,14.89-10.79,29.68-16,44.58-1.08,3.09-2.35,4.46-5.92,4.4C1475.59,179.88,1462.11,180,1447.7,180Zm105.73-85.41c-5-13.87-9.79-27.29-15.06-42-5.27,14.77-10.07,28.22-15,42Z" transform="translate(-26.61 -2.09)"/><path class="cls-1" d="M732.2,42.41V68.89h80.18v36.43H732.32v74.3H689.74V6.21h131v36.2Z" transform="translate(-26.61 -2.09)"/><path class="cls-1" d="M606,179.85H563.35V43.91c-2.2-.11-4-.28-5.7-.28-16.82,0-33.65-.11-50.47.06-3.63,0-5-.87-4.88-4.72.25-10.79.09-21.6.09-32.8H665.86V43.63H606Z" transform="translate(-26.61 -2.09)"/><path class="cls-1" d="M201.52,179.75V6.21h42.36v136h89.54v37.52Z" transform="translate(-26.61 -2.09)"/></svg>