<svg width="11" height="15" viewBox="0 0 11 15" fill="none" xmlns="http://www.w3.org/2000/svg">
    <path d="M8.03571 15H2.67857C1.96817 15 1.28686 14.7178 0.784535 14.2155C0.282206 13.7131 0 13.0318 0 12.3214V11.7857C0 10.507 0.50797 9.28065 1.41216 8.37646C2.31636 7.47227 3.54271 6.96429 4.82143 6.96429H5.89286C7.17158 6.96429 8.39793 7.47227 9.30212 8.37646C10.2063 9.28065 10.7143 10.507 10.7143 11.7857V12.3214C10.7143 13.0318 10.4321 13.7131 9.92975 14.2155C9.42742 14.7178 8.74612 15 8.03571 15ZM4.82143 8.03572C3.82687 8.03572 2.87304 8.43081 2.16978 9.13407C1.46652 9.83733 1.07143 10.7912 1.07143 11.7857V12.3214C1.07143 12.7477 1.24075 13.1565 1.54215 13.4579C1.84355 13.7593 2.25233 13.9286 2.67857 13.9286H8.03571C8.46196 13.9286 8.87074 13.7593 9.17214 13.4579C9.47353 13.1565 9.64286 12.7477 9.64286 12.3214V11.7857C9.64286 10.7912 9.24777 9.83733 8.54451 9.13407C7.84125 8.43081 6.88742 8.03572 5.89286 8.03572H4.82143Z"
          />
    <path d="M5.35686 6.42857C4.72114 6.42857 4.09969 6.24006 3.5711 5.88687C3.04252 5.53368 2.63053 5.03167 2.38725 4.44434C2.14397 3.85701 2.08032 3.21072 2.20434 2.58721C2.32837 1.9637 2.6345 1.39097 3.08402 0.941444C3.53355 0.491918 4.10628 0.185787 4.72979 0.061763C5.3533 -0.0622609 5.99958 0.00139271 6.58692 0.244674C7.17425 0.487956 7.67626 0.899939 8.02945 1.42853C8.38264 1.95711 8.57115 2.57856 8.57115 3.21429C8.57115 4.06677 8.2325 4.88433 7.62971 5.48713C7.02691 6.08993 6.20935 6.42857 5.35686 6.42857ZM5.35686 1.07143C4.93305 1.07143 4.51875 1.19711 4.16636 1.43257C3.81397 1.66803 3.53931 2.0027 3.37712 2.39425C3.21494 2.78581 3.1725 3.21666 3.25518 3.63234C3.33786 4.04801 3.54195 4.42983 3.84164 4.72952C4.14132 5.0292 4.52314 5.23329 4.93881 5.31597C5.35449 5.39865 5.78534 5.35622 6.1769 5.19403C6.56846 5.03184 6.90312 4.75719 7.13859 4.40479C7.37405 4.0524 7.49972 3.6381 7.49972 3.21429C7.49972 2.64597 7.27396 2.10092 6.87209 1.69906C6.47023 1.29719 5.92519 1.07143 5.35686 1.07143Z"
          />
</svg>
